<?xml version="1.0" encoding="utf-8"?>
<!-- Generator: Adobe Illustrator 19.1.1, SVG Export Plug-In . SVG Version: 6.00 Build 0)  -->
<svg version="1.1" id="Layer_1" xmlns="http://www.w3.org/2000/svg" xmlns:xlink="http://www.w3.org/1999/xlink" x="0px" y="0px"
	 viewBox="-230 371.5 50 50" style="enable-background:new -230 371.5 50 50;" xml:space="preserve">
<g>
	<path d="M-204.2,390.9c-0.9,0.4-2.7,0.2-2.7-0.1c-0.1-0.3-1.5-0.9-2-0.5c-0.6,0.4-1.5,1.1-2.3,0.7c-0.4-0.2-2.5-0.2-2.9,0.2
		c-0.5,0.4-1,2.3,0.4,2.7c1.4,0.3,1.9,0.3,1.9,0.8c0,0.5,1.7,0.9,2.3,0.1c0.6-0.8,2-1.8,2.4-1.6c0.4,0.2,2.3,1.9,3.7,1
		c1.4-0.9,1.5-2.1,1.1-2.8C-202.8,390.9-203.3,390.5-204.2,390.9z"/>
	<path d="M-184.8,384.6c-0.2,0-1.2,0.1-1.7,0.3c-0.5,0.1-0.7,0.1-1-0.1c-0.3-0.2-1.1-0.6-2.3-0.4c-1.2,0.2-1.9,0.5-1.9,0.5
		c-0.4-0.2-1.2-0.2-1.6-0.2c-0.3,0.1-0.6,0.1-0.9,0c-0.2,0-0.3,0.3-0.2,0.5c0.1,0.1,0.1,0.3,0.3,0.5c0.1,0.2,0.1,0.5,0.2,0.5
		c0.1,0.1,0,0.2-0.4,0.1c-0.4-0.1-1.3,0-1.7,0c-0.4,0-1.1-0.5-2.4-0.5c-1.4,0-6.8,0.4-8,0.4c-1.3,0-6.3-0.2-7.2-0.3
		c-0.9-0.1-2.5-0.7-3.9-0.9c-1.5-0.2-2.4,0.1-3.2,1c-0.7,1-1.1,2.4-1.1,3.2c0,0.8-1.1,4.5-1.4,5.5c-0.3,1.1-0.8,3-0.9,3.4
		c-0.1,0.4-0.4,0.8-0.6,1.1c-0.2,0.3-0.8,1.8-0.5,2.6c0.3,0.8,0.6,1.6,0.5,2c-0.1,0.4-0.2,1-0.1,1.2c0,0.2,0,0.1,0.1-0.1
		c0-0.2,0.1-0.2,0.3-0.6c0.2-0.4,0.8-1.5,1-2.7c0.1-1.2,0-2.6-0.1-3c-0.1-0.5,0.3-1.9,0.7-3.2c0.4-1.3,1.1-2.6,1.4-3.1
		c0.2-0.5,0.3-0.6,0.3,0c0.1,0.5,0.3,2.3,0.2,3c-0.1,0.6-0.7,2.1-1.3,2.6c-0.6,0.5-0.2,1.6-0.1,2.3c0,0.8,0,3-0.1,3.8
		c-0.1,0.8-0.3,1.6-0.3,1.8c0,0.2,0.2,0.6,0.5,0.8c0.2,0.2,0.2,0.2,0.2,0.6c0,0.4,0.1,0.5,0.4,0.6c0.3,0.1,1.4,0.1,1.6,0.1
		c0.2,0,0.1-0.1,0.1-0.3c-0.1-0.2,0.1-0.1,0.2-0.1c0.1,0-0.4-0.9-0.5-1.1c-0.1-0.2-0.2-0.4-0.2-0.6c0-0.2-0.3-0.7-0.4-1.1
		c-0.1-0.4,0-1.2,0.1-1.9c0.1-0.7,0.4-1.1,0.6-1.1c0.1,0,0.5,1.2,0.6,2c0,0.9,0.2,1.7,0.4,2c0.2,0.3,0.7,0.2,0.8,0.7
		c0.1,0.5,0.2,0.7,0.3,0.8c0.1,0.1,1.2-0.2,1.4-0.2c0.2,0,0.2-0.1,0.1-0.3c-0.1-0.1,0.2-0.1,0.3-0.1c0.1,0,0.1-0.1-0.1-0.4
		c-0.3-0.3-0.9-0.6-1.1-0.7c-0.1-0.1-0.6-1-0.7-1.7c-0.1-0.7-0.2-2.1-0.1-2.4c0-0.2,0.5-1.2,0.5-1.2s0.5,0.1,0.6,0.1
		c0.1,0,0,0.3,0,0.5c0,0.2,0.3,0.4,0.3,0.1c0-0.3,0.1-0.5,0.1-0.5s0.5,0,0.6,0c0.1,0,0,0.4,0,0.5c0,0.2,0.3,0.3,0.3,0
		c0-0.2,0-0.6,0-0.6l0.6-0.1c0,0-0.1,0.6,0,0.7c0,0.1,0.3,0.2,0.3-0.2c0-0.3,0.3-0.8,0.4-0.8c0.1,0,1-0.1,1.4-0.4
		c0.4-0.3,0.9-0.5,1.1-0.4c0.2,0.1,3.6,0.8,5.4,0.7c1.8,0,3.4-0.3,3.9-0.5c0.6-0.2,1-0.5,1.2-0.2c0.2,0.3,0.4,1.3,0.4,1.7
		c0,0.4-0.5,1.2-0.2,1.7c0.2,0.5,0.4,2,0.3,2.5c-0.1,0.5-0.4,1.4-0.2,1.8c0.2,0.4,0.4,0.5,0.4,0.9c0,0.4-0.1,0.8,0,0.8
		c0.1,0.1,1.3,0.2,1.9,0.1c0.6-0.1,0.3-0.3,0.3-0.3l0.4-0.1c0,0-0.1-0.1-0.2-0.3c-0.2-0.2-1.1-1.1-1.1-1.5c0-0.4-0.1-1.5,0.1-2.3
		c0.2-0.7,0.5-1.4,0.7-2.2c0,0,0,0,0,0c0.1,0.3,0.2,0.9,0.2,1.2c0,0.3-0.1,1.3-0.1,1.6c-0.1,0.2-0.2,0.8,0,1.1
		c0.2,0.3,0.3,0.5,0.3,0.7c-0.1,0.3,0,0.8,0.1,0.9c0,0.1,1.4,0.2,1.9,0.1c0.5-0.1,0.4-0.3,0.3-0.3c-0.1-0.1,0-0.1,0.3-0.1
		c0.2,0,0.1-0.2-0.4-0.9c-0.5-0.7-0.6-0.8-0.6-1.2c0-0.4,0.1-1.5,0.1-1.7c0-0.1,0.4-0.5,0.5-1.2c0.1-0.7,0.2-1.1,0.4-1.5
		c0.1-0.3,0.3-0.6,0.3-0.8c0.6-0.2,1.4-0.8,2-1.9c0.9-1.7,2.1-3.5,2.6-4.2c0.5-0.7,1.5-1.2,1.7-1.2c0.2,0,0.8,0,1.1,0.2
		c0.2,0.2,0.5,0.4,1.4,0.3c0.9-0.1,1.3-0.5,1.4-0.8c0.1-0.4,0.1-0.8,0.2-1c0.1-0.2,0-0.6-0.4-1c-0.4-0.4-0.9-1.1-0.8-1.5
		c0.1-0.3,0.4-0.8,0.3-1.2c-0.1-0.4-0.2-0.6,0-0.6c0.2-0.1,0.6,0,1.2-0.3c0.6-0.3,0.6-1.4,0.8-1.6
		C-184.4,384.7-184.6,384.6-184.8,384.6z M-193.7,385.4c0.1,0.1,0.7,0,1,0c0.3,0,1.2,0.5,1.3,0.8c0.1,0.4-0.7,0.3-1.3,0.2
		c-0.6,0-0.9-0.6-1-0.8C-193.8,385.5-193.8,385.3-193.7,385.4z M-195.1,386.8c0.1-0.4,0.1-0.4,0.1-0.4s0.3,0,0.5,0
		c0.2,0,0.7,0.1,0.7,0.1c0.2,0.1,0.7,0.6,1.3,0.5c0.6-0.1,0.9-0.1,0.9-0.1s-0.1,0.2-0.2,0.3c-0.1,0.1-0.4,0.2-0.4,0.4
		c0,0.2-0.8,0.8-0.9,0.9c-0.1,0-0.1,0.4,0,0.6c0.1,0.2-0.1,0.6-0.5,0.1c-0.4-0.5-0.7-1.6-1.1-1.7
		C-195,387.4-195.2,387.2-195.1,386.8z M-221.1,406c-0.1,0.1-1,0.6-1,0.6s-0.2-0.3-0.4-0.4c-0.2-0.2-0.2-0.8-0.1-1.3
		c0.1-0.4,0.1-1.2,0.1-1.5c0,0,0.7,0,0.9-0.3c0.2-0.3,0.2,0,0.1,0.5c0,0.5,0,1.3,0.2,1.7C-221.1,405.5-221,405.9-221.1,406z
		 M-219,401.7c0,0.6,0.1,1.7,0.2,2.3c0.1,0.6,0.7,1.6,0.6,1.7c0,0.1-0.4,0.5-0.5,0.4c0-0.1-0.2-0.3-0.3-0.3c-0.1,0-0.5-0.1-0.5-0.3
		c-0.1-0.2-0.2-0.5-0.3-1.3c-0.1-0.8-0.3-1.9-0.4-2.3c-0.1-0.3-0.3-0.8-0.3-0.8c0-0.1,0.3-0.6,0.6-0.9c0.4-0.3,0.7-0.6,0.8-0.6
		c0,0.1,0.5,0.4,0.5,0.4S-219,401.1-219,401.7z M-196.8,401.7c0,0.4-0.2,0.9-0.3,1.1c-0.1,0.2-0.2,0.5-0.2,0.9
		c0,0.4-0.1,1.2-0.1,1.4c0,0.2,0.1,0.5,0.1,0.6c0.1,0-0.8,0.4-0.9,0.5c-0.1,0.1-0.3,0.1-0.4-0.3c-0.1-0.3-0.4-0.4-0.2-1
		c0.1-0.5,0.3-1.3,0.3-1.8c0-0.4-0.2-1.3-0.3-1.6c0.2-0.5,0.4-0.9,0.4-1.1c0.1-0.2,1.1-0.3,1.8-0.4c0.1,0,0.3,0,0.5-0.1
		C-196.3,400.3-196.8,401.3-196.8,401.7z M-190,392.4c-0.3,0.1-1.3,0.8-1.8,1.6c-0.5,0.8-2,3.3-2.3,3.9c-0.3,0.6-1.1,1.7-2,1.8
		c-0.9,0.1-1.8,0.2-1.9,0.3c-0.1,0,0.1-0.3,0.3-0.8c0.2-0.5,0.1-0.8-0.1-0.2c-0.3,0.6-0.9,1.7-1.3,2.7c-0.4,1-0.4,1.5-0.5,1.7
		c-0.2,0.2-0.5,0.3-0.5,0.3s-0.1,0.2,0.1,0.2c0.2,0,0.3,0.1,0.2,0.3c0,0.2-0.1,1.2-0.2,1.7c0,0.5,0.1,0.8,0.1,0.9
		c0,0.1-0.1,0.1-0.2,0.2c-0.2,0.1-0.7,0.5-0.8,0.4c-0.1,0-0.4-0.4-0.5-0.8c-0.1-0.4,0.2-1.2,0.2-1.7c0-0.5-0.1-1.4-0.3-2
		c-0.1-0.5,0-1.5,0.2-1.8c0.2-0.4,0-1.2-0.1-1.7c-0.1-0.5-0.8-1.6-0.7-2.1c0.1-0.5-0.2-0.6-0.3-0.2c-0.1,0.5,0.1,1.1,0.2,1.3
		c0,0.2-0.1,0.2-0.2,0.1c-0.1-0.1-0.8-0.7-1.2-0.6c-0.4,0.1-0.8,0.3-1.1,0.4c-0.3,0.1-0.9,0-1.3-0.3c-0.4-0.3-0.7-0.7-1.5-0.5
		c-0.7,0.2-1,0.4-1.1,0.6c-0.1,0.2-1.7-0.3-1.7,0.1c0,0.4-0.6,0.6-0.9,0.6c-0.3,0-0.9-0.1-1.2-0.2c-0.3,0-1.7-0.4-2.2-0.7
		c-0.5-0.4-1.1-0.6-1.5-0.6c-0.4,0-0.6,0.2-0.1,0.2c0.5,0,0.9,0.3,1.2,0.5c0.3,0.2,1,0.5,1.3,0.6c0.3,0.1,0.1,0.2,0,0.3
		c-0.1,0.1-1.6,0.7-2.2,0.8c-0.7,0.1-1.4,0.1-1.7,0c-0.3-0.1-0.7-0.2-0.9-0.4c-0.2-0.2-0.3-0.4-0.3-0.4s1.4-0.8,2.2-1.8
		c0.8-1,1.1-2.3,1.7-2.5c0.6-0.2,0.5-0.3,0.1-0.3c-0.3,0-0.8,0.4-1.2,1c-0.4,0.6-0.9,0.6-1.2,0.5c-0.3-0.1-1.3,0-1.5,0.3
		c-0.2,0.2-0.3,0.4-0.6,0.5c-0.3,0-1.3,0.7-1.2,1.1c0,0.4,0,1-0.1,1.1c-0.1,0.1-0.7,1-0.8,1.2c-0.2,0.2-0.3,0.3-0.2,0.7
		c0.1,0.3-0.1,0.9-0.4,0.9c-0.3,0-0.5,0.2-0.5-0.5c0-0.6,0-2-0.1-2.6c-0.1-0.5,0.1-0.9,0.6-1.3c0.5-0.4,1-1.6,1-2.6
		c0-1-0.1-1.9-0.1-2.3c0-0.3,0.3-0.7,0.6-0.5c0.2,0.1,3.3,1.1,3.4-0.5c0.1-1.6,1.7-1.9,1.8-2.5c0.2-1,0-1.6-1.7-1.7
		c-1.1,0-1-0.8-0.3-1.3c0.6-0.4,0.6-0.8,2.1-0.5c1.5,0.3,2.2,0.4,2.2,0.4s-0.4,0.6-0.3,1.4c0.1,1.1,1.1,2.2,2.5,1.6
		c0.6-0.3,1.8-0.2,1.8,0.1c0,0.3,2.1,1.1,2.4,0.4c0.2-0.4,1.3-1.7,2.6-1.1c1.3,0.6,2.7,0.3,2.9-0.2c0.1-0.5,0.7-0.4,1.2-0.9
		c0.5-0.5,0-1-0.8-1c-0.7,0-1.2-0.2-0.9-0.3c0.4-0.1,0.8-0.1,1.2-0.1c0.4,0,2.5-0.1,2.9,0.1c0.4,0.1,0.8,0.3,0.8,0.4
		c0.1,0.1,0.2,0.7-0.1,0.9c-0.2,0.1-0.7,0.7-0.3,1.7c0.4,1,0.4,1,0.2,1.3c-0.2,0.3-1.2,1.3-1,2c0.2,0.8,0,1.9-0.2,2.2
		c-0.2,0.2-1.4,1.4-1.4,1.7c0,0.2,0.6,0.9,1.7,0.3c1-0.6,1.8-0.9,1.8-0.5c0.1,0.4,1.1,0.8,1.6,0.6c0.5-0.2,1.4-0.8,1.9-2.4
		c0.5-1.6,0.4-2.5,0.6-2.7c0.2-0.2,0.3-0.4,0.3-0.5c0-0.1,0.6,0.5,1.1,0.5c0.4,0.1,0.8,0.4,0.9,0.6
		C-189.6,392.2-189.7,392.3-190,392.4z M-191,387.7c0.1-0.2,0.6-0.3,0.8-0.2c0.2,0.1,0.3,0.2,0.4,0.5c0,0.3-0.1,0.3-0.1,0.2
		c0,0-0.3,0.1-0.5,0c-0.2-0.1-0.4-0.3-0.4-0.4C-190.9,387.8-191,387.7-191,387.7z M-186.6,389.7c0.1,0.2,0.4,0.5,0.6,0.7
		c0.2,0.2,0.3,0.3,0.2,0.6c-0.1,0.2-0.1,0.5-0.1,0.7c0,0.2-0.2,0.4-0.3,0.5c-0.1,0.1-0.3,0.1-0.5,0.1c-0.2,0-0.3-0.1-0.4-0.1
		c-0.1,0-0.5,0.2-0.9,0.1c-0.5-0.1-0.5-0.2-0.6-0.3c-0.1-0.1-0.2-0.2,0-0.4c0.2-0.2,0.3-0.7,0.1-1.2c-0.2-0.5-0.1-1.1,0-1.6
		c0.1-0.5-0.1-0.8-0.4-1.5c-0.4-0.6-1-0.8-1.3-1c-0.3-0.2-0.2-0.3-0.3-0.6c-0.1-0.3-0.6-0.7-0.6-0.7l0.1-0.1
		c0.2-0.1,1.2-0.3,1.4-0.3c0.2,0,1.2,0.1,1.3,0.1c0.1,0.1,0.3,0.2,0.4,0.4c0,0.2,0.1,0.5,0.3,0.7c0.2,0.2,0.5,0.5,0.5,0.8
		c0,0.3-0.2,0.6-0.5,0.7c-0.4,0.1-0.5,0.3-0.3,0.5c0.1,0.2,0.3,0.4,0.4,0.6c0,0.2,0.4,0.6,0.6,0.6C-187,389-186.7,389.5-186.6,389.7
		z M-185.3,385.4c-0.2,0.4-0.5,0.6-0.7,0.7c-0.2,0.1-0.8,0.3-0.8,0.3s-0.2-0.7-0.2-0.8c0-0.1,0.6,0,0.7-0.1c0.2-0.1,0.7,0,0.9-0.2
		C-185.2,385.1-185,385.1-185.3,385.4z"/>
</g>
</svg>
