<svg xmlns="http://www.w3.org/2000/svg" xmlns:xlink="http://www.w3.org/1999/xlink" version="1.1" x="0px" y="0px" viewBox="0 0 100 125" enable-background="new 0 0 100 100" xml:space="preserve"><g><path fill="#000000" d="M51.636,38.831c-1.822,0.812-5.318,0.383-5.458-0.191c-0.145-0.577-2.924-1.783-4.072-0.959   c-1.15,0.827-2.921,2.251-4.551,1.484c-0.812-0.381-4.932-0.381-5.892,0.479c-0.956,0.862-1.914,4.693,0.864,5.316   c2.777,0.623,3.783,0.623,3.831,1.676s3.353,1.818,4.55,0.193c1.197-1.628,3.977-3.64,4.74-3.163   c0.766,0.479,4.599,3.833,7.329,2.06c2.728-1.772,3.018-4.263,2.253-5.554C54.462,38.878,53.456,38.016,51.636,38.831z"/><path fill="#000000" d="M90.429,26.235c-0.433,0-2.49,0.238-3.496,0.525c-1.006,0.289-1.438,0.145-1.964-0.238   c-0.528-0.383-2.276-1.21-4.695-0.864c-2.416,0.348-3.829,0.923-3.829,0.923c-0.72-0.335-2.442-0.454-3.113-0.347   c-0.671,0.113-1.28,0.147-1.71,0.099c-0.429-0.046-0.687,0.618-0.496,0.907c0.194,0.287,0.286,0.587,0.528,1.006   c0.243,0.417,0.254,0.91,0.395,1.033c0.137,0.121-0.012,0.364-0.824,0.145c-0.813-0.22-2.685,0.046-3.451-0.043   c-0.758-0.091-2.105-1.039-4.832-0.991c-2.731,0.046-13.557,0.718-16.094,0.718c-2.54,0-12.645-0.326-14.369-0.527   c-1.723-0.201-4.927-1.405-7.897-1.74c-2.968-0.336-4.848,0.103-6.333,2.02c-1.486,1.914-2.238,4.797-2.287,6.378   c-0.048,1.582-2.175,8.906-2.84,11.018c-0.669,2.112-1.566,5.935-1.72,6.798c-0.151,0.859-0.836,1.531-1.221,2.156   c-0.388,0.625-1.592,3.556-1.023,5.17c0.57,1.613,1.151,3.16,0.958,4.021c-0.192,0.861-0.337,2.061-0.289,2.398   c0.048,0.332,0.097,0.285,0.146-0.146c0.049-0.432,0.144-0.383,0.624-1.15c0.48-0.766,1.681-2.904,1.92-5.348   c0.236-2.443-0.028-5.139-0.196-6.051c-0.173-0.908,0.629-3.732,1.467-6.317c0.838-2.586,2.258-5.246,2.752-6.274   c0.497-1.026,0.538-1.166,0.699-0.096c0.165,1.063,0.548,4.653,0.366,5.95c-0.184,1.296-1.373,4.245-2.621,5.201   c-1.244,0.956-0.358,3.114-0.276,4.698c0.083,1.582-0.008,6-0.251,7.627c-0.236,1.629-0.602,3.197-0.602,3.625   c0,0.434,0.482,1.123,0.972,1.504c0.487,0.385,0.411,0.465,0.366,1.229s0.236,0.924,0.812,1.113   c0.573,0.193,2.779,0.131,3.162,0.131c0.385,0,0.279-0.205,0.138-0.539c-0.144-0.334,0.199-0.141,0.44-0.141   c0.238,0-0.719-1.715-0.956-2.145c-0.243-0.434-0.367-0.873-0.374-1.246c-0.006-0.369-0.683-1.326-0.873-2.143   c-0.184-0.812-0.016-2.355,0.271-3.793c0.289-1.435,0.853-2.186,1.106-2.116c0.254,0.07,1.069,2.308,1.147,4.081   c0.073,1.771,0.392,3.361,0.727,3.938c0.334,0.574,1.44,0.322,1.677,1.373c0.239,1.055,0.336,1.451,0.576,1.596   c0.239,0.143,2.345-0.303,2.823-0.35c0.481-0.049,0.481-0.287,0.241-0.574c-0.241-0.287,0.384-0.143,0.525-0.143   c0.146,0,0.241-0.289-0.285-0.814c-0.525-0.527-1.9-1.246-2.107-1.484c-0.209-0.24-1.151-2.059-1.343-3.449   c-0.191-1.389-0.335-4.262-0.238-4.741c0.096-0.478,1.005-2.489,1.005-2.489s1.087,0.17,1.246,0.236c0.16,0.072,0,0.672,0,1.056   s0.585,0.862,0.626,0.191c0.043-0.671,0.19-1.1,0.19-1.1s0.979,0.032,1.195,0.009c0.216-0.021,0.098,0.708,0.098,1.041   c0,0.338,0.526,0.578,0.621,0.1c0.097-0.479,0.097-1.105,0.097-1.105l1.101-0.236c0,0-0.101,1.144-0.055,1.337   c0.05,0.191,0.579,0.339,0.629-0.332c0.047-0.673,0.536-1.503,0.776-1.549c0.24-0.05,1.907-0.27,2.768-0.894   c0.862-0.623,1.796-1,2.248-0.834c0.453,0.163,7.224,1.511,10.813,1.461c3.593-0.046,6.717-0.579,7.87-1.01   c1.146-0.432,1.965-0.908,2.392-0.384c0.429,0.525,0.766,2.632,0.72,3.4c-0.048,0.767-0.91,2.492-0.48,3.448   c0.433,0.957,0.886,3.939,0.661,4.98c-0.226,1.047-0.781,2.777-0.361,3.605c0.42,0.826,0.804,0.994,0.804,1.713   c0,0.717-0.238,1.506,0,1.674c0.237,0.166,2.592,0.445,3.884,0.207c1.293-0.24,0.664-0.639,0.664-0.639l0.817-0.287   c0,0-0.1-0.113-0.435-0.592c-0.333-0.479-2.105-2.256-2.118-3.055c-0.018-0.797-0.179-3.059,0.206-4.543   c0.383-1.484,0.997-2.887,1.409-4.357c0.004-0.015,0.01-0.029,0.015-0.04c0.131,0.597,0.4,1.87,0.421,2.378   c0.031,0.666-0.106,2.668-0.297,3.102c-0.192,0.43-0.398,1.648-0.019,2.201c0.383,0.547,0.672,0.932,0.554,1.461   c-0.121,0.525,0.058,1.664,0.105,1.818s2.792,0.322,3.798,0.191c1.003-0.131,0.741-0.502,0.525-0.693s0.094-0.146,0.501-0.146   c0.409,0,0.191-0.334-0.883-1.723c-1.081-1.387-1.271-1.58-1.199-2.346c0.07-0.768,0.193-3.092,0.256-3.35   c0.059-0.264,0.754-1.023,0.966-2.424c0.209-1.396,0.35-2.131,0.734-3.084c0.265-0.654,0.518-1.242,0.651-1.547   c1.238-0.457,2.747-1.51,4.005-3.891c1.818-3.449,4.213-7.088,5.267-8.476c1.056-1.391,2.92-2.313,3.3-2.398   c0.385-0.082,1.685,0.053,2.163,0.388c0.475,0.335,0.953,0.714,2.726,0.521c1.771-0.188,2.623-0.908,2.728-1.674   c0.104-0.763,0.104-1.667,0.346-2.096c0.237-0.431,0.079-1.125-0.774-1.927c-0.855-0.8-1.704-2.296-1.514-2.92   c0.191-0.623,0.847-1.616,0.556-2.395c-0.292-0.779-0.433-1.149-0.096-1.295c0.335-0.142,1.195,0.098,2.348-0.575   c1.148-0.667,1.29-2.774,1.626-3.111C91.193,26.473,90.858,26.235,90.429,26.235z M72.517,27.815   c0.192,0.191,1.338-0.049,2.014-0.049c0.667,0,2.475,0.908,2.583,1.522c0.144,0.802-1.389,0.537-2.537,0.489   c-1.149-0.046-1.867-1.196-2.06-1.531C72.325,27.911,72.325,27.624,72.517,27.815z M69.784,30.593   c0.242-0.816,0.242-0.862,0.242-0.862s0.671,0.046,1.052,0.046c0.384,0,1.465,0.166,1.465,0.166c0.3,0.246,1.459,1.269,2.606,1.068   c1.151-0.208,1.71-0.166,1.71-0.166s-0.131,0.369-0.321,0.559c-0.191,0.192-0.717,0.387-0.766,0.864   c-0.048,0.479-1.53,1.63-1.723,1.726c-0.195,0.096-0.195,0.862,0,1.293c0.192,0.429-0.241,1.149-0.958,0.141   c-0.719-1.004-1.486-3.206-2.299-3.397C69.979,31.838,69.548,31.404,69.784,30.593z M17.776,68.904   c-0.239,0.191-1.962,1.137-1.962,1.137s-0.387-0.514-0.814-0.85c-0.431-0.332-0.431-1.676-0.239-2.537   c0.19-0.861,0.284-2.443,0.284-2.969c0,0,1.343-0.096,1.726-0.672c0.382-0.574,0.334,0,0.239,0.957   c-0.096,0.957,0,2.684,0.384,3.307C17.776,67.9,18.015,68.715,17.776,68.904z M21.991,60.477c0,1.295,0.241,3.305,0.381,4.551   c0.144,1.244,1.319,3.113,1.294,3.35c-0.024,0.238-0.861,0.957-0.909,0.814c-0.049-0.145-0.385-0.572-0.524-0.572   c-0.146,0-0.912-0.143-1.058-0.576c-0.142-0.43-0.429-1.053-0.573-2.584c-0.144-1.535-0.68-3.883-0.861-4.502   c-0.184-0.623-0.528-1.535-0.528-1.678c0-0.141,0.528-1.197,1.246-1.771c0.717-0.576,1.481-1.264,1.576-1.121   c0.096,0.145,1.011,0.787,1.011,0.787S21.991,59.184,21.991,60.477z M66.369,60.357c-0.098,0.889-0.369,1.867-0.559,2.252   c-0.188,0.383-0.455,0.98-0.478,1.844c-0.023,0.859-0.191,2.467-0.191,2.846c0,0.383,0.147,1.062,0.262,1.15   c0.118,0.094-1.524,0.879-1.746,0.982c-0.226,0.104-0.575,0.143-0.767-0.551s-0.754-0.887-0.479-1.986   c0.272-1.1,0.501-2.541,0.501-3.689c0-0.879-0.377-2.557-0.556-3.294c0.37-1.032,0.772-1.841,0.865-2.188   c0.121-0.455,2.206-0.653,3.501-0.749c0.265-0.018,0.576-0.063,0.913-0.151C67.329,57.541,66.446,59.629,66.369,60.357z    M80.036,41.704c-0.623,0.144-2.54,1.674-3.592,3.255c-1.056,1.579-4.071,6.562-4.693,7.76c-0.626,1.196-2.251,3.303-4.071,3.592   c-1.818,0.286-3.594,0.479-3.737,0.527c-0.142,0.045,0.251-0.674,0.682-1.584c0.433-0.91,0.264-1.605-0.263-0.456   c-0.527,1.147-1.808,3.427-2.621,5.487c-0.813,2.059-0.716,2.969-1.099,3.352c-0.385,0.383-0.96,0.574-0.96,0.574   s-0.239,0.336,0.143,0.336c0.385,0,0.528,0.285,0.48,0.67c-0.048,0.383-0.289,2.492-0.334,3.402   c-0.049,0.908,0.191,1.633,0.262,1.854c0.075,0.217-0.154,0.27-0.49,0.459c-0.335,0.191-1.394,0.92-1.631,0.824   c-0.239-0.094-0.824-0.84-0.966-1.654C57,69.289,57.48,67.662,57.574,66.75c0.098-0.912-0.266-2.887-0.501-3.938   c-0.242-1.053-0.073-2.911,0.31-3.629c0.384-0.719,0.047-2.301-0.237-3.305c-0.291-1.006-1.625-3.115-1.437-4.119   c0.192-1.008-0.384-1.244-0.53-0.336c-0.144,0.91,0.244,2.127,0.337,2.586c0.096,0.463-0.19,0.43-0.385,0.242   c-0.188-0.191-1.529-1.343-2.346-1.197c-0.812,0.143-1.534,0.623-2.156,0.86c-0.622,0.241-1.869,0.095-2.585-0.525   c-0.718-0.622-1.438-1.438-2.923-0.96c-1.484,0.479-1.914,0.812-2.155,1.293c-0.239,0.479-3.446-0.525-3.496,0.287   c-0.048,0.816-1.147,1.27-1.771,1.236c-0.627-0.031-1.773-0.231-2.3-0.324c-0.525-0.096-3.302-0.72-4.309-1.437   c-1.008-0.718-2.154-1.2-3.018-1.2c-0.862,0-1.245,0.385-0.19,0.434c1.054,0.049,1.866,0.523,2.489,0.91   c0.622,0.381,1.916,1.053,2.538,1.197c0.623,0.143,0.191,0.334-0.048,0.573c-0.239,0.237-3.113,1.438-4.455,1.579   c-1.34,0.145-2.872,0.145-3.495,0c-0.624-0.141-1.438-0.479-1.771-0.86c-0.336-0.384-0.528-0.719-0.528-0.719   s2.777-1.677,4.359-3.593c1.58-1.916,2.299-4.597,3.448-4.978c1.149-0.385,0.91-0.674,0.287-0.578   c-0.624,0.099-1.627,0.722-2.35,2.013c-0.715,1.293-1.864,1.148-2.439,0.959c-0.574-0.191-2.682,0.095-3.065,0.572   c-0.384,0.479-0.574,0.863-1.243,0.959c-0.674,0.096-2.54,1.393-2.444,2.205c0.096,0.814,0,2.056-0.241,2.297   c-0.237,0.242-1.338,2.061-1.674,2.488c-0.336,0.435-0.529,0.673-0.336,1.344c0.19,0.67-0.239,1.771-0.815,1.82   c-0.575,0.049-1.003,0.336-0.958-0.911c0.05-1.247-0.045-4.071-0.141-5.124c-0.101-1.056,0.141-1.818,1.148-2.682   c1.004-0.863,2.011-3.207,2.011-5.125c0-1.914-0.191-3.877-0.237-4.55c-0.051-0.669,0.67-1.339,1.147-1.054   c0.48,0.289,6.647,2.131,6.889-0.983c0.239-3.11,3.319-3.719,3.647-5.097c0.478-2.012-0.043-3.204-3.4-3.353   c-2.154-0.096-1.963-1.676-0.67-2.54c1.293-0.862,1.195-1.628,4.118-0.958c2.922,0.67,4.405,0.756,4.405,0.756   s-0.766,1.113-0.573,2.741c0.263,2.24,2.103,4.333,4.92,3.14c1.245-0.528,3.604-0.41,3.604,0.117c0,0.525,4.135,2.264,4.789,0.862   c0.335-0.721,2.585-3.448,5.269-2.251c2.68,1.198,5.459,0.525,5.745-0.433c0.287-0.956,1.391-0.862,2.302-1.869   c0.91-1.002-0.099-1.962-1.58-1.914c-1.488,0.049-2.492-0.351-1.728-0.524c0.843-0.194,1.617-0.198,2.481-0.262   c0.86-0.063,4.918-0.127,5.756,0.131c0.839,0.259,1.536,0.559,1.675,0.846c0.146,0.289,0.324,1.49-0.154,1.777   c-0.477,0.287-1.423,1.339-0.562,3.349c0.863,2.013,0.816,2.058,0.433,2.681c-0.385,0.623-2.349,2.54-1.965,4.072   c0.386,1.531,0.048,3.83-0.384,4.309c-0.429,0.478-2.873,2.875-2.873,3.352c0,0.479,1.293,1.82,3.354,0.625   c2.062-1.197,3.502-1.716,3.644-0.903c0.146,0.812,2.2,1.62,3.109,1.14c0.912-0.479,2.824-1.596,3.777-4.853   c0.961-3.258,0.707-5.011,1.139-5.44c0.429-0.433,0.639-0.72,0.688-0.912c0.05-0.19,1.249,0.918,2.105,1.054   c0.86,0.137,1.584,0.862,1.723,1.102C80.898,41.463,80.658,41.561,80.036,41.704z M77.953,32.408   c0.18-0.461,1.205-0.552,1.691-0.41c0.49,0.14,0.668,0.453,0.726,0.979c0.059,0.527-0.178,0.54-0.216,0.44   c-0.04-0.096-0.626,0.195-1.092-0.035c-0.47-0.233-0.857-0.643-0.897-0.742C78.127,32.544,77.953,32.408,77.953,32.408z    M86.787,36.338c0.238,0.385,0.72,1.006,1.104,1.437c0.383,0.433,0.571,0.672,0.383,1.103c-0.193,0.431-0.193,1.002-0.193,1.387   s-0.477,0.814-0.67,1.054c-0.19,0.241-0.623,0.224-0.958,0.131c-0.332-0.096-0.669-0.227-0.86-0.131   c-0.193,0.099-0.96,0.461-1.869,0.176c-0.914-0.286-0.958-0.318-1.246-0.559c-0.285-0.239-0.383-0.335-0.048-0.717   c0.336-0.385,0.513-1.413,0.192-2.49c-0.318-1.078-0.145-2.251,0-3.21c0.144-0.956-0.115-1.652-0.882-2.947   c-0.765-1.293-1.989-1.651-2.518-1.986c-0.526-0.332-0.478-0.516-0.622-1.196c-0.148-0.68-1.104-1.389-1.104-1.389l0.287-0.288   c0.337-0.145,2.395-0.575,2.829-0.672c0.427-0.096,2.39,0.147,2.633,0.289c0.239,0.142,0.68,0.426,0.734,0.758   c0.054,0.334,0.153,0.993,0.586,1.472c0.431,0.477,0.999,1.073,0.937,1.601c-0.062,0.53-0.34,1.148-1.062,1.341   c-0.718,0.19-0.956,0.669-0.671,1.1c0.288,0.431,0.671,0.805,0.769,1.199c0.097,0.395,0.718,1.102,1.102,1.197   C86.021,35.095,86.548,35.957,86.787,36.338z M89.469,27.862c-0.441,0.737-0.906,1.18-1.341,1.437   c-0.431,0.255-1.53,0.67-1.53,0.67s-0.479-1.483-0.479-1.674c0-0.192,1.102-0.048,1.485-0.192c0.383-0.144,1.437-0.048,1.724-0.479   C89.613,27.193,89.913,27.127,89.469,27.862z"/></g><text x="0" y="115" fill="#000000" font-size="5px" font-weight="bold" font-family="'Helvetica Neue', Helvetica, Arial-Unicode, Arial, Sans-serif">Created by João Proença</text><text x="0" y="120" fill="#000000" font-size="5px" font-weight="bold" font-family="'Helvetica Neue', Helvetica, Arial-Unicode, Arial, Sans-serif">from the Noun Project</text></svg>